<svg width="882" height="236" viewBox="0 0 882 236" fill="none" xmlns="http://www.w3.org/2000/svg">
<path d="M805.526 148.132V85.8678H817.703L818.958 98.5466H819.209C820.883 94.948 822.808 92.1444 824.984 90.1359C827.16 88.0437 829.628 86.5792 832.39 85.7423C835.235 84.8217 838.499 84.3615 842.182 84.3615V98.9232H838.541C835.612 98.9232 832.934 99.2998 830.507 100.053C828.164 100.722 826.155 101.81 824.481 103.317C822.891 104.74 821.636 106.706 820.716 109.217C819.795 111.644 819.335 114.657 819.335 118.255V148.132H805.526Z" fill="black"/>
<path d="M770.69 149.638C764.497 149.638 759.016 148.299 754.246 145.621C749.475 142.859 745.751 139.052 743.073 134.198C740.395 129.344 739.056 123.695 739.056 117.251C739.056 110.723 740.353 104.991 742.948 100.053C745.626 95.1154 749.35 91.2657 754.12 88.504C758.89 85.7423 764.456 84.3615 770.816 84.3615C776.925 84.3615 782.239 85.7423 786.758 88.504C791.361 91.182 794.918 94.7806 797.429 99.2998C799.939 103.735 801.195 108.757 801.195 114.364C801.195 115.201 801.153 116.121 801.069 117.125C801.069 118.046 801.027 119.092 800.944 120.264H749.099V110.974H787.261C787.009 106.204 785.336 102.438 782.239 99.6764C779.143 96.831 775.293 95.4083 770.69 95.4083C767.426 95.4083 764.414 96.1615 761.652 97.6679C758.89 99.0906 756.673 101.225 754.999 104.07C753.409 106.915 752.614 110.514 752.614 114.866V118.506C752.614 122.691 753.409 126.289 754.999 129.302C756.673 132.231 758.848 134.449 761.526 135.955C764.288 137.462 767.301 138.215 770.565 138.215C774.247 138.215 777.343 137.378 779.854 135.704C782.365 134.03 784.248 131.771 785.503 128.925H799.312C798.224 132.859 796.341 136.415 793.663 139.596C790.985 142.692 787.721 145.161 783.871 147.002C780.022 148.759 775.628 149.638 770.69 149.638Z" fill="black"/>
<path d="M704.84 176C699.066 176 693.961 175.247 689.525 173.74C685.09 172.318 681.658 170.142 679.232 167.213C676.805 164.367 675.591 160.852 675.591 156.668C675.591 154.325 676.135 151.981 677.223 149.638C678.395 147.379 680.194 145.245 682.621 143.236C685.132 141.144 688.354 139.303 692.287 137.713L698.94 144.115C694.923 145.621 692.161 147.379 690.655 149.387C689.149 151.396 688.395 153.488 688.395 155.664C688.395 157.756 689.065 159.555 690.404 161.062C691.743 162.568 693.668 163.698 696.178 164.451C698.689 165.204 701.576 165.581 704.84 165.581C708.02 165.581 710.74 165.162 713 164.325C715.259 163.489 716.975 162.317 718.147 160.811C719.318 159.304 719.904 157.505 719.904 155.413C719.904 152.986 718.983 150.977 717.142 149.387C715.301 147.881 711.744 146.96 706.472 146.625C701.869 146.291 697.894 145.83 694.546 145.245C691.283 144.659 688.479 143.947 686.136 143.111C683.793 142.274 681.826 141.353 680.236 140.349C678.646 139.261 677.307 138.173 676.219 137.085V134.198L689.023 121.017L698.187 124.532L685.508 137.964L688.521 131.938C689.358 132.44 690.195 132.942 691.032 133.445C691.952 133.863 693.124 134.281 694.546 134.7C695.969 135.035 697.852 135.369 700.195 135.704C702.539 136.039 705.551 136.374 709.234 136.708C714.841 137.127 719.36 138.089 722.791 139.596C726.306 141.102 728.859 143.152 730.449 145.747C732.039 148.341 732.834 151.438 732.834 155.036C732.834 158.551 731.829 161.899 729.821 165.079C727.812 168.259 724.758 170.853 720.657 172.862C716.556 174.954 711.284 176 704.84 176ZM704.84 129.176C699.568 129.176 695.049 128.172 691.283 126.164C687.517 124.155 684.629 121.477 682.621 118.13C680.696 114.698 679.734 110.891 679.734 106.706C679.734 102.605 680.696 98.8813 682.621 95.5338C684.629 92.1863 687.517 89.5083 691.283 87.4998C695.049 85.4076 699.568 84.3615 704.84 84.3615C710.112 84.3615 714.59 85.4076 718.272 87.4998C722.038 89.5083 724.883 92.1863 726.808 95.5338C728.817 98.8813 729.821 102.605 729.821 106.706C729.821 110.891 728.817 114.698 726.808 118.13C724.883 121.477 722.038 124.155 718.272 126.164C714.59 128.172 710.112 129.176 704.84 129.176ZM704.715 118.632C708.564 118.632 711.661 117.627 714.004 115.619C716.347 113.61 717.519 110.681 717.519 106.832C717.519 102.982 716.347 100.053 714.004 98.0445C711.661 96.036 708.606 95.0317 704.84 95.0317C700.99 95.0317 697.852 96.036 695.425 98.0445C693.082 100.053 691.91 102.982 691.91 106.832C691.91 110.681 693.082 113.61 695.425 115.619C697.852 117.627 700.949 118.632 704.715 118.632ZM714.883 95.9104L711.995 85.8678H737.981V94.153L714.883 95.9104Z" fill="black"/>
<path d="M639.854 148.132V85.8678H652.031L653.286 98.5466H653.537C655.211 94.948 657.136 92.1444 659.312 90.1359C661.488 88.0437 663.956 86.5792 666.718 85.7423C669.563 84.8217 672.827 84.3615 676.51 84.3615V98.9232H672.869C669.94 98.9232 667.262 99.2998 664.835 100.053C662.492 100.722 660.483 101.81 658.809 103.317C657.219 104.74 655.964 106.706 655.044 109.217C654.123 111.644 653.663 114.657 653.663 118.255V148.132H639.854Z" fill="black"/>
<path d="M599.184 149.638C594.079 149.638 589.852 148.801 586.505 147.128C583.157 145.37 580.647 143.069 578.973 140.223C577.383 137.294 576.588 134.114 576.588 130.683C576.588 126.582 577.634 123.109 579.726 120.264C581.818 117.335 584.873 115.075 588.89 113.485C592.907 111.895 597.845 111.1 603.703 111.1H619.896C619.896 107.585 619.352 104.698 618.264 102.438C617.26 100.095 615.712 98.3792 613.62 97.2913C611.611 96.1196 609.101 95.5338 606.088 95.5338C602.405 95.5338 599.225 96.4125 596.547 98.17C593.869 99.9274 592.237 102.564 591.652 106.079H577.969C578.471 101.559 579.977 97.7097 582.488 94.5296C585.082 91.2657 588.43 88.7551 592.53 86.9976C596.631 85.2402 601.15 84.3615 606.088 84.3615C612.03 84.3615 617.051 85.4076 621.152 87.4998C625.252 89.5083 628.349 92.4374 630.441 96.287C632.617 100.053 633.705 104.572 633.705 109.844V148.132H622.03L620.775 137.838H620.524C619.436 139.679 618.181 141.353 616.758 142.859C615.335 144.282 613.745 145.496 611.988 146.5C610.23 147.504 608.264 148.257 606.088 148.759C603.996 149.345 601.694 149.638 599.184 149.638ZM602.447 138.591C605.125 138.591 607.51 138.089 609.603 137.085C611.695 136.081 613.452 134.742 614.875 133.068C616.298 131.311 617.386 129.344 618.139 127.168C618.976 124.992 619.478 122.732 619.645 120.389H605.084C601.736 120.389 599.016 120.808 596.924 121.645C594.915 122.398 593.451 123.486 592.53 124.908C591.61 126.247 591.149 127.837 591.149 129.679C591.149 131.52 591.61 133.11 592.53 134.449C593.451 135.788 594.748 136.834 596.422 137.587C598.096 138.257 600.104 138.591 602.447 138.591Z" fill="black"/>
<path d="M513.156 148.128V59H526.839V96.032H527.09C529.35 92.3497 532.279 89.5043 535.878 87.4958C539.476 85.4036 543.577 84.3575 548.18 84.3575C553.117 84.3575 557.344 85.4036 560.858 87.4958C564.457 89.588 567.219 92.7263 569.144 96.9107C571.068 101.095 572.031 106.284 572.031 112.477V148.128H558.348V113.858C558.348 108.083 557.176 103.689 554.833 100.677C552.49 97.5802 548.891 96.032 544.037 96.032C540.773 96.032 537.844 96.827 535.25 98.4171C532.656 100.007 530.605 102.267 529.099 105.196C527.676 108.125 526.965 111.724 526.965 115.992V148.128H513.156Z" fill="black"/>
<path d="M478.203 149.638C471.843 149.638 466.236 148.257 461.382 145.496C456.612 142.734 452.888 138.926 450.21 134.072C447.532 129.135 446.193 123.444 446.193 117C446.193 110.556 447.532 104.907 450.21 100.053C452.971 95.1154 456.779 91.2657 461.633 88.504C466.487 85.7423 472.01 84.3615 478.203 84.3615C485.986 84.3615 492.472 86.37 497.661 90.387C502.933 94.404 506.281 99.8856 507.703 106.832H493.267C492.514 103.317 490.715 100.639 487.869 98.7977C485.107 96.8728 481.844 95.9104 478.078 95.9104C474.898 95.9104 471.927 96.7055 469.165 98.2955C466.487 99.8856 464.311 102.271 462.637 105.451C461.047 108.547 460.252 112.397 460.252 117C460.252 120.347 460.712 123.318 461.633 125.913C462.554 128.507 463.809 130.725 465.399 132.566C467.073 134.323 468.956 135.662 471.048 136.583C473.224 137.503 475.567 137.964 478.078 137.964C480.588 137.964 482.89 137.545 484.982 136.708C487.074 135.872 488.832 134.658 490.254 133.068C491.761 131.394 492.765 129.428 493.267 127.168H507.703C506.281 133.947 502.933 139.386 497.661 143.487C492.388 147.588 485.903 149.638 478.203 149.638Z" fill="black"/>
<path d="M411.397 149.638C405.539 149.638 400.225 148.299 395.454 145.621C390.684 142.859 386.918 139.052 384.156 134.198C381.395 129.26 380.014 123.528 380.014 117C380.014 110.472 381.395 104.781 384.156 99.9274C387.002 94.9898 390.81 91.182 395.58 88.504C400.35 85.7423 405.706 84.3615 411.648 84.3615C417.59 84.3615 422.946 85.7423 427.716 88.504C432.486 91.182 436.252 94.9898 439.014 99.9274C441.776 104.781 443.157 110.472 443.157 117C443.157 123.528 441.734 129.26 438.889 134.198C436.127 139.052 432.361 142.859 427.591 145.621C422.82 148.299 417.423 149.638 411.397 149.638ZM411.523 138.089C414.619 138.089 417.506 137.294 420.184 135.704C422.862 134.114 424.996 131.771 426.586 128.674C428.26 125.578 429.097 121.686 429.097 117C429.097 112.313 428.26 108.422 426.586 105.325C424.996 102.145 422.862 99.8019 420.184 98.2955C417.59 96.7055 414.744 95.9104 411.648 95.9104C408.552 95.9104 405.664 96.7055 402.986 98.2955C400.308 99.8019 398.132 102.145 396.459 105.325C394.869 108.422 394.074 112.313 394.074 117C394.074 121.686 394.869 125.578 396.459 128.674C398.132 131.771 400.266 134.114 402.861 135.704C405.539 137.294 408.426 138.089 411.523 138.089Z" fill="black"/>
<path d="M344.661 148.132V85.8678H356.838L358.093 98.5466H358.344C360.018 94.948 361.943 92.1444 364.119 90.1359C366.295 88.0437 368.763 86.5792 371.525 85.7423C374.37 84.8217 377.634 84.3615 381.317 84.3615V98.9232H377.676C374.747 98.9232 372.069 99.2998 369.642 100.053C367.299 100.722 365.29 101.81 363.617 103.317C362.026 104.74 360.771 106.706 359.851 109.217C358.93 111.644 358.47 114.657 358.47 118.255V148.132H344.661Z" fill="black"/>
<path d="M302.689 149.624C297.751 149.624 293.483 148.578 289.884 146.486C286.286 144.394 283.482 141.255 281.474 137.071C279.549 132.886 278.587 127.698 278.587 121.505V85.8538H292.395V120.124C292.395 125.982 293.567 130.418 295.91 133.43C298.337 136.443 302.019 137.95 306.957 137.95C310.137 137.95 312.982 137.155 315.493 135.565C318.087 133.974 320.096 131.715 321.519 128.786C322.941 125.857 323.653 122.258 323.653 117.99V85.8538H337.461V148.118H325.41L324.28 137.824H324.029C322.021 141.423 319.217 144.31 315.619 146.486C312.02 148.578 307.71 149.624 302.689 149.624Z" fill="black"/>
<path d="M244.634 149.638C238.441 149.638 232.96 148.299 228.189 145.621C223.419 142.859 219.695 139.052 217.017 134.198C214.339 129.344 213 123.695 213 117.251C213 110.723 214.297 104.991 216.891 100.053C219.57 95.1154 223.294 91.2657 228.064 88.504C232.834 85.7423 238.399 84.3615 244.76 84.3615C250.869 84.3615 256.183 85.7423 260.702 88.504C265.305 91.182 268.862 94.7806 271.372 99.2998C273.883 103.735 275.138 108.757 275.138 114.364C275.138 115.201 275.097 116.121 275.013 117.125C275.013 118.046 274.971 119.092 274.887 120.264H223.043V110.974H261.204C260.953 106.204 259.28 102.438 256.183 99.6764C253.087 96.831 249.237 95.4083 244.634 95.4083C241.37 95.4083 238.358 96.1615 235.596 97.6679C232.834 99.0906 230.616 101.225 228.943 104.07C227.353 106.915 226.557 110.514 226.557 114.866V118.506C226.557 122.691 227.353 126.289 228.943 129.302C230.616 132.231 232.792 134.449 235.47 135.955C238.232 137.462 241.245 138.215 244.509 138.215C248.191 138.215 251.287 137.378 253.798 135.704C256.309 134.03 258.192 131.771 259.447 128.925H273.255C272.168 132.859 270.285 136.415 267.607 139.596C264.928 142.692 261.665 145.161 257.815 147.002C253.965 148.759 249.572 149.638 244.634 149.638Z" fill="black"/>
<circle cx="110.707" cy="118.283" r="70.7066" fill="#2DE21D"/>
<path fill-rule="evenodd" clip-rule="evenodd" d="M111.745 117.998L133.394 40L57.3744 117.998L111.745 117.998ZM163.942 117.708L111.745 118.002L90.0965 196L163.942 117.708Z" fill="black"/>
</svg>
