<svg width="803" height="156" viewBox="0 0 803 156" fill="none" xmlns="http://www.w3.org/2000/svg">
<path d="M765.526 108.132V45.8678H777.703L778.958 58.5466H779.209C780.883 54.948 782.808 52.1444 784.984 50.1359C787.16 48.0437 789.628 46.5792 792.39 45.7423C795.235 44.8217 798.499 44.3615 802.182 44.3615V58.9232H798.541C795.612 58.9232 792.934 59.2998 790.507 60.053C788.164 60.7225 786.155 61.8104 784.481 63.3168C782.891 64.7395 781.636 66.7062 780.716 69.2168C779.795 71.6438 779.335 74.6566 779.335 78.2551V108.132H765.526Z" fill="black"/>
<path d="M730.69 109.638C724.497 109.638 719.016 108.299 714.246 105.621C709.475 102.859 705.751 99.0517 703.073 94.1977C700.395 89.3438 699.056 83.6949 699.056 77.2509C699.056 70.7232 700.353 64.9906 702.948 60.053C705.626 55.1154 709.35 51.2657 714.12 48.504C718.89 45.7423 724.456 44.3615 730.816 44.3615C736.925 44.3615 742.239 45.7423 746.758 48.504C751.361 51.182 754.918 54.7806 757.429 59.2998C759.939 63.7353 761.195 68.7565 761.195 74.3637C761.195 75.2005 761.153 76.1211 761.069 77.1254C761.069 78.0459 761.027 79.092 760.944 80.2637H709.099V70.9743H747.261C747.009 66.2041 745.336 62.4381 742.239 59.6764C739.143 56.831 735.293 55.4083 730.69 55.4083C727.426 55.4083 724.414 56.1615 721.652 57.6679C718.89 59.0906 716.673 61.2246 714.999 64.07C713.409 66.9154 712.614 70.514 712.614 74.8658V78.5062C712.614 82.6906 713.409 86.2892 714.999 89.302C716.673 92.2311 718.848 94.4488 721.526 95.9552C724.288 97.4616 727.301 98.2148 730.565 98.2148C734.247 98.2148 737.343 97.3779 739.854 95.7041C742.365 94.0304 744.248 91.7708 745.503 88.9254H759.312C758.224 92.8587 756.341 96.4155 753.663 99.5956C750.985 102.692 747.721 105.161 743.871 107.002C740.022 108.759 735.628 109.638 730.69 109.638Z" fill="black"/>
<path d="M664.84 136C659.066 136 653.961 135.247 649.525 133.74C645.09 132.318 641.658 130.142 639.232 127.213C636.805 124.367 635.591 120.852 635.591 116.668C635.591 114.325 636.135 111.981 637.223 109.638C638.395 107.379 640.194 105.245 642.621 103.236C645.132 101.144 648.354 99.3027 652.287 97.7127L658.94 104.115C654.923 105.621 652.161 107.379 650.655 109.387C649.149 111.396 648.395 113.488 648.395 115.664C648.395 117.756 649.065 119.555 650.404 121.062C651.743 122.568 653.668 123.698 656.178 124.451C658.689 125.204 661.576 125.581 664.84 125.581C668.02 125.581 670.74 125.162 673 124.325C675.259 123.489 676.975 122.317 678.147 120.811C679.318 119.304 679.904 117.505 679.904 115.413C679.904 112.986 678.983 110.977 677.142 109.387C675.301 107.881 671.744 106.96 666.472 106.625C661.869 106.291 657.894 105.83 654.546 105.245C651.283 104.659 648.479 103.947 646.136 103.111C643.793 102.274 641.826 101.353 640.236 100.349C638.646 99.2609 637.307 98.1729 636.219 97.085V94.1978L649.023 81.0169L658.187 84.5318L645.508 97.9637L648.521 91.9382C649.358 92.4403 650.195 92.9424 651.032 93.4446C651.952 93.863 653.124 94.2814 654.546 94.6999C655.969 95.0346 657.852 95.3694 660.195 95.7041C662.539 96.0389 665.551 96.3736 669.234 96.7084C674.841 97.1268 679.36 98.0893 682.791 99.5956C686.306 101.102 688.859 103.152 690.449 105.747C692.039 108.341 692.834 111.438 692.834 115.036C692.834 118.551 691.829 121.899 689.821 125.079C687.812 128.259 684.758 130.853 680.657 132.862C676.556 134.954 671.284 136 664.84 136ZM664.84 89.1765C659.568 89.1765 655.049 88.1722 651.283 86.1637C647.517 84.1552 644.629 81.4772 642.621 78.1296C640.696 74.6984 639.734 70.8906 639.734 66.7062C639.734 62.6055 640.696 58.8813 642.621 55.5338C644.629 52.1863 647.517 49.5083 651.283 47.4998C655.049 45.4076 659.568 44.3615 664.84 44.3615C670.112 44.3615 674.59 45.4076 678.272 47.4998C682.038 49.5083 684.883 52.1863 686.808 55.5338C688.817 58.8813 689.821 62.6055 689.821 66.7062C689.821 70.8906 688.817 74.6984 686.808 78.1296C684.883 81.4772 682.038 84.1552 678.272 86.1637C674.59 88.1722 670.112 89.1765 664.84 89.1765ZM664.715 78.6318C668.564 78.6318 671.661 77.6275 674.004 75.619C676.347 73.6105 677.519 70.6814 677.519 66.8317C677.519 62.9821 676.347 60.053 674.004 58.0445C671.661 56.036 668.606 55.0317 664.84 55.0317C660.99 55.0317 657.852 56.036 655.425 58.0445C653.082 60.053 651.91 62.9821 651.91 66.8317C651.91 70.6814 653.082 73.6105 655.425 75.619C657.852 77.6275 660.949 78.6318 664.715 78.6318ZM674.883 55.9104L671.995 45.8678H697.981V54.153L674.883 55.9104Z" fill="black"/>
<path d="M599.854 108.132V45.8678H612.031L613.286 58.5466H613.537C615.211 54.948 617.136 52.1444 619.312 50.1359C621.488 48.0437 623.956 46.5792 626.718 45.7423C629.563 44.8217 632.827 44.3615 636.51 44.3615V58.9232H632.869C629.94 58.9232 627.262 59.2998 624.835 60.053C622.492 60.7225 620.483 61.8104 618.809 63.3168C617.219 64.7395 615.964 66.7062 615.044 69.2168C614.123 71.6438 613.663 74.6566 613.663 78.2551V108.132H599.854Z" fill="black"/>
<path d="M559.184 109.638C554.079 109.638 549.852 108.801 546.505 107.128C543.157 105.37 540.647 103.069 538.973 100.223C537.383 97.2942 536.588 94.1141 536.588 90.6828C536.588 86.5821 537.634 83.1091 539.726 80.2637C541.818 77.3346 544.873 75.075 548.89 73.4849C552.907 71.8948 557.845 71.0998 563.703 71.0998H579.896C579.896 67.5849 579.352 64.6977 578.264 62.4381C577.26 60.0948 575.712 58.3792 573.62 57.2913C571.611 56.1196 569.101 55.5338 566.088 55.5338C562.405 55.5338 559.225 56.4125 556.547 58.17C553.869 59.9274 552.237 62.5636 551.652 66.0785H537.969C538.471 61.5594 539.977 57.7097 542.488 54.5296C545.082 51.2657 548.43 48.7551 552.53 46.9976C556.631 45.2402 561.15 44.3615 566.088 44.3615C572.03 44.3615 577.051 45.4076 581.152 47.4998C585.252 49.5083 588.349 52.4374 590.441 56.287C592.617 60.053 593.705 64.5721 593.705 69.8445V108.132H582.03L580.775 97.8382H580.524C579.436 99.6793 578.181 101.353 576.758 102.859C575.335 104.282 573.745 105.496 571.988 106.5C570.23 107.504 568.264 108.257 566.088 108.759C563.996 109.345 561.694 109.638 559.184 109.638ZM562.447 98.5914C565.125 98.5914 567.51 98.0892 569.603 97.085C571.695 96.0807 573.452 94.7417 574.875 93.068C576.298 91.3105 577.386 89.3438 578.139 87.1679C578.976 84.9921 579.478 82.7325 579.645 80.3892H565.084C561.736 80.3892 559.016 80.8076 556.924 81.6445C554.915 82.3977 553.451 83.4857 552.53 84.9084C551.61 86.2474 551.149 87.8374 551.149 89.6786C551.149 91.5197 551.61 93.1098 552.53 94.4488C553.451 95.7878 554.748 96.8339 556.422 97.5871C558.096 98.2566 560.104 98.5914 562.447 98.5914Z" fill="black"/>
<path d="M473.156 108.128V19H486.839V56.032H487.09C489.35 52.3497 492.279 49.5043 495.878 47.4958C499.476 45.4036 503.577 44.3575 508.18 44.3575C513.117 44.3575 517.344 45.4036 520.858 47.4958C524.457 49.588 527.219 52.7263 529.144 56.9107C531.068 61.0951 532.031 66.2838 532.031 72.4767V108.128H518.348V73.8576C518.348 68.0831 517.176 63.6895 514.833 60.6767C512.49 57.5802 508.891 56.032 504.037 56.032C500.773 56.032 497.844 56.827 495.25 58.4171C492.656 60.0072 490.605 62.2668 489.099 65.1959C487.676 68.1249 486.965 71.7235 486.965 75.9916V108.128H473.156Z" fill="black"/>
<path d="M438.203 109.638C431.843 109.638 426.236 108.257 421.382 105.496C416.612 102.734 412.888 98.9261 410.21 94.0722C407.532 89.1346 406.193 83.4438 406.193 76.9998C406.193 70.5558 407.532 64.9069 410.21 60.053C412.971 55.1154 416.779 51.2657 421.633 48.504C426.487 45.7423 432.01 44.3615 438.203 44.3615C445.986 44.3615 452.472 46.37 457.661 50.387C462.933 54.404 466.281 59.8856 467.703 66.8317H453.267C452.514 63.3168 450.715 60.6388 447.869 58.7977C445.107 56.8728 441.844 55.9104 438.078 55.9104C434.898 55.9104 431.927 56.7055 429.165 58.2955C426.487 59.8856 424.311 62.2707 422.637 65.4509C421.047 68.5473 420.252 72.397 420.252 76.9998C420.252 80.3474 420.712 83.3183 421.633 85.9126C422.554 88.507 423.809 90.7247 425.399 92.5658C427.073 94.3233 428.956 95.6623 431.048 96.5829C433.224 97.5034 435.567 97.9637 438.078 97.9637C440.588 97.9637 442.89 97.5453 444.982 96.7084C447.074 95.8715 448.832 94.658 450.254 93.068C451.761 91.3942 452.765 89.4275 453.267 87.1679H467.703C466.281 93.9467 462.933 99.3864 457.661 103.487C452.388 107.588 445.903 109.638 438.203 109.638Z" fill="black"/>
<path d="M371.397 109.638C365.539 109.638 360.225 108.299 355.454 105.621C350.684 102.859 346.918 99.0517 344.156 94.1977C341.395 89.2601 340.014 83.5275 340.014 76.9998C340.014 70.4722 341.395 64.7814 344.156 59.9274C347.002 54.9898 350.81 51.182 355.58 48.504C360.35 45.7423 365.706 44.3615 371.648 44.3615C377.59 44.3615 382.946 45.7423 387.716 48.504C392.486 51.182 396.252 54.9898 399.014 59.9274C401.776 64.7814 403.157 70.4722 403.157 76.9998C403.157 83.5275 401.734 89.2601 398.889 94.1977C396.127 99.0517 392.361 102.859 387.591 105.621C382.82 108.299 377.423 109.638 371.397 109.638ZM371.523 98.0892C374.619 98.0892 377.506 97.2942 380.184 95.7041C382.862 94.1141 384.996 91.7708 386.586 88.6743C388.26 85.5779 389.097 81.6864 389.097 76.9998C389.097 72.3133 388.26 68.4218 386.586 65.3253C384.996 62.1452 382.862 59.8019 380.184 58.2955C377.59 56.7055 374.744 55.9104 371.648 55.9104C368.552 55.9104 365.664 56.7055 362.986 58.2955C360.308 59.8019 358.132 62.1452 356.459 65.3253C354.869 68.4218 354.074 72.3133 354.074 76.9998C354.074 81.6864 354.869 85.5779 356.459 88.6743C358.132 91.7708 360.266 94.1141 362.861 95.7041C365.539 97.2942 368.426 98.0892 371.523 98.0892Z" fill="black"/>
<path d="M304.661 108.132V45.8678H316.838L318.093 58.5466H318.344C320.018 54.948 321.943 52.1444 324.119 50.1359C326.295 48.0437 328.763 46.5792 331.525 45.7423C334.37 44.8217 337.634 44.3615 341.317 44.3615V58.9232H337.676C334.747 58.9232 332.069 59.2998 329.642 60.053C327.299 60.7225 325.29 61.8104 323.617 63.3168C322.026 64.7395 320.771 66.7062 319.851 69.2168C318.93 71.6438 318.47 74.6566 318.47 78.2551V108.132H304.661Z" fill="black"/>
<path d="M262.689 109.624C257.751 109.624 253.483 108.578 249.884 106.486C246.286 104.394 243.482 101.255 241.474 97.0709C239.549 92.8865 238.587 87.6978 238.587 81.5049V45.8538H252.395V80.1241C252.395 85.9822 253.567 90.4177 255.91 93.4305C258.337 96.4432 262.019 97.9496 266.957 97.9496C270.137 97.9496 272.982 97.1546 275.493 95.5645C278.087 93.9744 280.096 91.7149 281.519 88.7858C282.941 85.8567 283.653 82.2581 283.653 77.99V45.8538H297.461V108.118H285.41L284.28 97.8241H284.029C282.021 101.423 279.217 104.31 275.619 106.486C272.02 108.578 267.71 109.624 262.689 109.624Z" fill="black"/>
<path d="M204.634 109.638C198.441 109.638 192.96 108.299 188.189 105.621C183.419 102.859 179.695 99.0517 177.017 94.1977C174.339 89.3438 173 83.6949 173 77.2509C173 70.7232 174.297 64.9906 176.891 60.053C179.57 55.1154 183.294 51.2657 188.064 48.504C192.834 45.7423 198.399 44.3615 204.76 44.3615C210.869 44.3615 216.183 45.7423 220.702 48.504C225.305 51.182 228.862 54.7806 231.372 59.2998C233.883 63.7353 235.138 68.7565 235.138 74.3637C235.138 75.2005 235.097 76.1211 235.013 77.1254C235.013 78.0459 234.971 79.092 234.887 80.2637H183.043V70.9743H221.204C220.953 66.2041 219.28 62.4381 216.183 59.6764C213.087 56.831 209.237 55.4083 204.634 55.4083C201.37 55.4083 198.358 56.1615 195.596 57.6679C192.834 59.0906 190.616 61.2246 188.943 64.07C187.353 66.9154 186.557 70.514 186.557 74.8658V78.5062C186.557 82.6906 187.353 86.2892 188.943 89.302C190.616 92.2311 192.792 94.4488 195.47 95.9552C198.232 97.4616 201.245 98.2148 204.509 98.2148C208.191 98.2148 211.287 97.3779 213.798 95.7041C216.309 94.0304 218.192 91.7708 219.447 88.9254H233.255C232.168 92.8587 230.285 96.4155 227.607 99.5956C224.928 102.692 221.665 105.161 217.815 107.002C213.965 108.759 209.572 109.638 204.634 109.638Z" fill="black"/>
<circle cx="70.7066" cy="78.2827" r="70.7066" fill="#2DE21D"/>
<path fill-rule="evenodd" clip-rule="evenodd" d="M71.7453 77.9978L93.394 -3.34757e-05L17.3744 77.9975L71.7453 77.9978ZM123.942 77.7076L71.7452 78.0022L50.0965 156L123.942 77.7076Z" fill="black"/>
</svg>
